<svg id="eZCv9poEqah1" xmlns="http://www.w3.org/2000/svg" xmlns:xlink="http://www.w3.org/1999/xlink" viewBox="0 0 300 300" shape-rendering="geometricPrecision" text-rendering="geometricPrecision" project-id="877e858302644aa38650318a4272789c" export-id="52ae7f5b7c044d8e925e98275dae4512" cached="false"><g transform="matrix(1.883483 0 0 1.801047 70.989532 30.577711)"><path d="M45,1C28.8,1,15.667,14.133,15.667,30.333C15.667,50.968,45,89,45,89s29.333-38.032,29.333-58.667C74.333,14.133,61.2,1,45,1Zm0,41.067c-6.48,0-11.733-5.253-11.733-11.733C33.267,23.853,38.52,18.6,45,18.6s11.733,5.253,11.733,11.733-5.253,11.734-11.733,11.734Z" fill="#00f328" stroke-miterlimit="10"/><path d="M45,43.067c-7.021,0-12.733-5.712-12.733-12.733s5.712-12.734,12.733-12.734s12.733,5.712,12.733,12.733-5.712,12.734-12.733,12.734ZM45,19.6c-5.918,0-10.733,4.815-10.733,10.733s4.815,10.734,10.733,10.734s10.733-4.815,10.733-10.733-4.815-10.734-10.733-10.734Z" fill="#333" stroke-miterlimit="10"/><path d="M45,90c-.31,0-.603-.144-.792-.39-1.206-1.563-29.542-38.54-29.542-59.277C14.667,13.607,28.274,0,45,0s30.333,13.607,30.333,30.333c0,20.737-28.335,57.713-29.541,59.277-.189.246-.482.39-.792.39ZM45,2C29.377,2,16.667,14.71,16.667,30.333c0,18.17,23.665,50.756,28.333,57.006c4.668-6.25,28.333-38.836,28.333-57.006C73.333,14.71,60.623,2,45,2Z" fill="#333" stroke-miterlimit="10"/></g><g transform="matrix(1.144889 0.607675-.573748 1.080969 217.666336 57.51353)"><path d="M45,1C28.8,1,15.667,14.133,15.667,30.333C15.667,50.968,45,89,45,89s29.333-38.032,29.333-58.667C74.333,14.133,61.2,1,45,1Zm0,41.067c-6.48,0-11.733-5.253-11.733-11.733C33.267,23.853,38.52,18.6,45,18.6s11.733,5.253,11.733,11.733-5.253,11.734-11.733,11.734Z" fill="#ff3636" stroke-miterlimit="10"/><path d="M45,43.067c-7.021,0-12.733-5.712-12.733-12.733s5.712-12.734,12.733-12.734s12.733,5.712,12.733,12.733-5.712,12.734-12.733,12.734ZM45,19.6c-5.918,0-10.733,4.815-10.733,10.733s4.815,10.734,10.733,10.734s10.733-4.815,10.733-10.733-4.815-10.734-10.733-10.734Z" fill="#333" stroke-miterlimit="10"/><path d="M45,90c-.31,0-.603-.144-.792-.39-1.206-1.563-29.542-38.54-29.542-59.277C14.667,13.607,28.274,0,45,0s30.333,13.607,30.333,30.333c0,20.737-28.335,57.713-29.541,59.277-.189.246-.482.39-.792.39ZM45,2C29.377,2,16.667,14.71,16.667,30.333c0,18.17,23.665,50.756,28.333,57.006c4.668-6.25,28.333-38.836,28.333-57.006C73.333,14.71,60.623,2,45,2Z" fill="#333" stroke-miterlimit="10"/></g><g transform="matrix(1.268865-.474331 0.447131 1.196103-25.788666 100.607372)"><path d="M45,1C28.8,1,15.667,14.133,15.667,30.333C15.667,50.968,45,89,45,89s29.333-38.032,29.333-58.667C74.333,14.133,61.2,1,45,1Zm0,41.067c-6.48,0-11.733-5.253-11.733-11.733C33.267,23.853,38.52,18.6,45,18.6s11.733,5.253,11.733,11.733-5.253,11.734-11.733,11.734Z" fill="#ecff00" stroke-miterlimit="10"/><path d="M45,43.067c-7.021,0-12.733-5.712-12.733-12.733s5.712-12.734,12.733-12.734s12.733,5.712,12.733,12.733-5.712,12.734-12.733,12.734ZM45,19.6c-5.918,0-10.733,4.815-10.733,10.733s4.815,10.734,10.733,10.734s10.733-4.815,10.733-10.733-4.815-10.734-10.733-10.734Z" fill="#333" stroke-miterlimit="10"/><path d="M45,90c-.31,0-.603-.144-.792-.39-1.206-1.563-29.542-38.54-29.542-59.277C14.667,13.607,28.274,0,45,0s30.333,13.607,30.333,30.333c0,20.737-28.335,57.713-29.541,59.277-.189.246-.482.39-.792.39ZM45,2C29.377,2,16.667,14.71,16.667,30.333c0,18.17,23.665,50.756,28.333,57.006c4.668-6.25,28.333-38.836,28.333-57.006C73.333,14.71,60.623,2,45,2Z" fill="#333" stroke-miterlimit="10"/></g><g transform="matrix(.328926 0 0 0.443921 151.564861 40.996588)"><g transform="translate(-502.967104-40.90981)"><g><g><g><rect width="40.399" height="160.805" rx="0" ry="0" transform="translate(292.266 252.295)" fill="#b5c3c2"/><rect width="27.197" height="67.575" rx="0" ry="0" transform="translate(298.867 240.767)" fill="#b5c3c2"/><rect width="15.086" height="37.483" rx="0" ry="0" transform="translate(304.923 233.454)" fill="#b5c3c2"/><polygon points="317.606,252.715 307.325,252.715 307.325,227.171 311.034,227.171 314.709,227.171 317.606,227.171" fill="#b5c3c2"/><g><polygon points="311.788,241.591 310.673,241.591 310.673,216.047 311.076,216.047 311.474,216.047 311.788,216.047" fill="#b5c3c2"/><polygon points="314.258,232.761 313.143,232.761 313.143,207.217 313.545,207.217 313.944,207.217 314.258,207.217" fill="#b5c3c2"/></g><rect width="42.554" height="1.712" rx="0" ry="0" transform="translate(291.188 251.883)" fill="#b5c3c2"/><rect width="29.182" height="1.649" rx="0" ry="0" transform="translate(297.875 239.943)" fill="#b5c3c2"/><rect width="16.817" height="1.265" rx="0" ry="0" transform="translate(303.823 232.761)" fill="#b5c3c2"/><rect width="1.264" height="7.081" rx="0" ry="0" transform="translate(301.368 243.509)" opacity="0.29" fill="#b5c3c2"/><rect width="1.265" height="7.081" rx="0" ry="0" transform="translate(304.866 243.509)" opacity="0.29" fill="#b5c3c2"/><rect width="1.265" height="7.081" rx="0" ry="0" transform="translate(308.365 243.509)" opacity="0.29" fill="#b5c3c2"/><rect width="1.265" height="7.081" rx="0" ry="0" transform="translate(311.863 243.509)" opacity="0.29" fill="#b5c3c2"/><rect width="1.265" height="7.081" rx="0" ry="0" transform="translate(315.361 243.509)" opacity="0.29" fill="#b5c3c2"/><rect width="1.265" height="7.081" rx="0" ry="0" transform="translate(318.86 243.509)" opacity="0.29" fill="#b5c3c2"/><rect width="1.265" height="7.081" rx="0" ry="0" transform="translate(322.358 243.509)" opacity="0.29" fill="#b5c3c2"/><rect width="3.055" height="8.401" rx="0" ry="0" transform="translate(295.812 258.707)" fill="#b5c3c2"/><rect width="3.055" height="8.401" rx="0" ry="0" transform="translate(301.862 258.707)" opacity="0.29" fill="#b5c3c2"/><rect width="3.055" height="8.401" rx="0" ry="0" transform="translate(307.913 258.707)" fill="#b5c3c2"/><rect width="3.055" height="8.401" rx="0" ry="0" transform="translate(313.963 258.707)" fill="#b5c3c2"/><rect width="3.055" height="8.401" rx="0" ry="0" transform="translate(320.014 258.707)" fill="#b5c3c2"/><rect width="3.055" height="8.401" rx="0" ry="0" transform="translate(326.064 258.707)" fill="#b5c3c2"/><rect width="3.055" height="8.401" rx="0" ry="0" transform="translate(295.812 271.801)" fill="#b5c3c2"/><rect width="3.055" height="8.401" rx="0" ry="0" transform="translate(301.862 271.801)" fill="#b5c3c2"/><rect width="3.055" height="8.401" rx="0" ry="0" transform="translate(307.913 271.801)" fill="#b5c3c2"/><rect width="3.055" height="8.401" rx="0" ry="0" transform="translate(313.963 271.801)" opacity="0.29" fill="#b5c3c2"/><rect width="3.055" height="8.401" rx="0" ry="0" transform="translate(320.014 271.801)" fill="#b5c3c2"/><rect width="3.055" height="8.401" rx="0" ry="0" transform="translate(326.064 271.801)" fill="#b5c3c2"/><rect width="3.055" height="8.401" rx="0" ry="0" transform="translate(295.812 284.896)" fill="#b5c3c2"/><rect width="3.055" height="8.401" rx="0" ry="0" transform="translate(301.862 284.896)" fill="#b5c3c2"/><rect width="3.055" height="8.401" rx="0" ry="0" transform="translate(307.913 284.896)" fill="#b5c3c2"/><rect width="3.055" height="8.401" rx="0" ry="0" transform="translate(313.963 284.896)" fill="#b5c3c2"/><rect width="3.055" height="8.401" rx="0" ry="0" transform="translate(320.014 284.896)" opacity="0.29" fill="#b5c3c2"/><rect width="3.055" height="8.401" rx="0" ry="0" transform="translate(326.064 284.896)" opacity="0.29" fill="#b5c3c2"/><rect width="3.055" height="8.401" rx="0" ry="0" transform="translate(295.812 297.99)" opacity="0.29" fill="#b5c3c2"/><rect width="3.055" height="8.401" rx="0" ry="0" transform="translate(301.862 297.99)" fill="#b5c3c2"/><rect width="3.055" height="8.401" rx="0" ry="0" transform="translate(307.913 297.99)" fill="#b5c3c2"/><rect width="3.055" height="8.401" rx="0" ry="0" transform="translate(313.963 297.99)" fill="#b5c3c2"/><rect width="3.055" height="8.401" rx="0" ry="0" transform="translate(320.014 297.99)" fill="#b5c3c2"/><rect width="3.055" height="8.401" rx="0" ry="0" transform="translate(326.064 297.99)" fill="#b5c3c2"/><rect width="3.055" height="8.401" rx="0" ry="0" transform="translate(295.812 311.085)" fill="#b5c3c2"/><rect width="3.055" height="8.401" rx="0" ry="0" transform="translate(301.862 311.085)" opacity="0.29" fill="#b5c3c2"/><rect width="3.055" height="8.401" rx="0" ry="0" transform="translate(307.913 311.085)" fill="#b5c3c2"/><rect width="3.055" height="8.401" rx="0" ry="0" transform="translate(313.963 311.085)" opacity="0.29" fill="#b5c3c2"/><rect width="3.055" height="8.401" rx="0" ry="0" transform="translate(320.014 311.085)" fill="#b5c3c2"/><rect width="3.055" height="8.401" rx="0" ry="0" transform="translate(326.064 311.085)" fill="#b5c3c2"/><rect width="3.055" height="8.401" rx="0" ry="0" transform="translate(295.812 324.18)" fill="#b5c3c2"/><rect width="3.055" height="8.401" rx="0" ry="0" transform="translate(301.862 324.18)" fill="#b5c3c2"/><rect width="3.055" height="8.401" rx="0" ry="0" transform="translate(307.913 324.18)" fill="#b5c3c2"/><rect width="3.055" height="8.401" rx="0" ry="0" transform="translate(313.963 324.18)" fill="#b5c3c2"/><rect width="3.055" height="8.401" rx="0" ry="0" transform="translate(320.014 324.18)" fill="#b5c3c2"/><rect width="3.055" height="8.401" rx="0" ry="0" transform="translate(326.064 324.18)" opacity="0.29" fill="#b5c3c2"/><rect width="3.055" height="8.401" rx="0" ry="0" transform="translate(295.812 337.274)" fill="#b5c3c2"/><rect width="3.055" height="8.401" rx="0" ry="0" transform="translate(301.862 337.274)" opacity="0.29" fill="#b5c3c2"/><rect width="3.055" height="8.401" rx="0" ry="0" transform="translate(307.913 337.274)" opacity="0.29" fill="#b5c3c2"/><rect width="3.055" height="8.401" rx="0" ry="0" transform="translate(313.963 337.274)" fill="#b5c3c2"/><rect width="3.055" height="8.401" rx="0" ry="0" transform="translate(320.014 337.274)" fill="#b5c3c2"/><rect width="3.055" height="8.401" rx="0" ry="0" transform="translate(326.064 337.274)" fill="#b5c3c2"/><rect width="3.055" height="8.401" rx="0" ry="0" transform="translate(295.812 350.369)" fill="#b5c3c2"/><rect width="3.055" height="8.401" rx="0" ry="0" transform="translate(301.862 350.369)" fill="#b5c3c2"/><rect width="3.055" height="8.401" rx="0" ry="0" transform="translate(307.913 350.369)" fill="#b5c3c2"/><rect width="3.055" height="8.401" rx="0" ry="0" transform="translate(313.963 350.369)" fill="#b5c3c2"/><rect width="3.055" height="8.401" rx="0" ry="0" transform="translate(320.014 350.369)" opacity="0.29" fill="#b5c3c2"/><rect width="3.055" height="8.401" rx="0" ry="0" transform="translate(326.064 350.369)" fill="#b5c3c2"/><rect width="3.055" height="8.401" rx="0" ry="0" transform="translate(295.812 363.463)" fill="#b5c3c2"/><rect width="3.055" height="8.401" rx="0" ry="0" transform="translate(301.862 363.463)" opacity="0.29" fill="#b5c3c2"/><rect width="3.055" height="8.401" rx="0" ry="0" transform="translate(307.913 363.463)" fill="#b5c3c2"/><rect width="3.055" height="8.401" rx="0" ry="0" transform="translate(313.963 363.463)" fill="#b5c3c2"/><rect width="3.055" height="8.401" rx="0" ry="0" transform="translate(320.014 363.463)" fill="#b5c3c2"/><rect width="3.055" height="8.401" rx="0" ry="0" transform="translate(326.064 363.463)" fill="#b5c3c2"/><rect width="3.055" height="8.401" rx="0" ry="0" transform="translate(295.812 376.558)" fill="#b5c3c2"/><rect width="3.055" height="8.401" rx="0" ry="0" transform="translate(301.862 376.558)" fill="#b5c3c2"/><rect width="3.055" height="8.401" rx="0" ry="0" transform="translate(307.913 376.558)" fill="#b5c3c2"/><rect width="3.055" height="8.401" rx="0" ry="0" transform="translate(313.963 376.558)" opacity="0.29" fill="#b5c3c2"/><rect width="3.055" height="8.401" rx="0" ry="0" transform="translate(320.014 376.558)" fill="#b5c3c2"/><rect width="3.055" height="8.401" rx="0" ry="0" transform="translate(326.064 376.558)" opacity="0.29" fill="#b5c3c2"/><rect width="3.055" height="8.401" rx="0" ry="0" transform="translate(295.812 389.652)" opacity="0.29" fill="#b5c3c2"/><rect width="3.055" height="8.401" rx="0" ry="0" transform="translate(301.862 389.652)" fill="#b5c3c2"/><rect width="3.055" height="8.401" rx="0" ry="0" transform="translate(307.913 389.652)" opacity="0.29" fill="#b5c3c2"/><rect width="3.055" height="8.401" rx="0" ry="0" transform="translate(313.963 389.652)" fill="#b5c3c2"/><rect width="3.055" height="8.401" rx="0" ry="0" transform="translate(320.014 389.652)" fill="#b5c3c2"/><rect width="3.055" height="8.401" rx="0" ry="0" transform="translate(326.064 389.652)" fill="#b5c3c2"/></g><g><rect width="64.942" height="135.464" rx="0" ry="0" transform="translate(174.937 258.412)" fill="#b5c3c2"/><rect width="68.633" height="3.829" rx="0" ry="0" transform="translate(173.092 256.082)" fill="#b5c3c2"/><rect width="60.576" height="18.199" rx="0" ry="0" transform="translate(177.12 251.182)" fill="#b5c3c2"/><rect width="23.988" height="19.884" rx="0" ry="0" transform="translate(181.757 243.735)" fill="#b5c3c2"/><polygon points="195.639,249.339 181.757,249.339 181.757,238.872 191.713,238.872" fill="#b5c3c2"/><rect width="1.346" height="23.315" rx="0" ry="0" transform="translate(187.352 230.184)" fill="#b5c3c2"/><path d="M189.233,228.975c0,.667-.541,1.208-1.209,1.208-.667,0-1.209-.541-1.209-1.208s.541-1.209,1.209-1.209c.668.001,1.209.542,1.209,1.209Z" fill="#b5c3c2"/></g><polygon points="777.666,404.188 706.578,404.188 697.707,205.019 777.666,221.617" fill="#b5c3c2"/><polygon points="467.521,290.445 467.521,223.858 456.372,223.858 456.372,206.022 452.389,206.022 452.389,179.862 430.445,179.862 430.445,160.637 428.492,160.637 428.492,179.862 424.193,179.862 424.193,155.796 422.241,155.796 422.241,179.862 408.368,179.862 408.368,223.858 401.202,223.858 401.202,290.445 395.059,290.445 395.059,411.728 471.84,411.728 471.84,290.445" fill="#b5c3c2"/></g><rect width="849.37" height="20.201" rx="0" ry="0" transform="translate(84.175 401.719)" fill="#b5c3c2"/><polygon points="584.14,416.97 546.529,416.97 561.184,341.655 584.14,341.655" fill="#95a9a7"/><g><rect width="891.8" height="31.853" rx="0" ry="0" transform="translate(53.701 419.904)" fill="#95a9a7"/><polygon points="553.317,277.6 553.317,244.226 541.241,244.226 541.241,231.52 534.78,231.52 534.78,220.846 532.513,220.846 532.513,202.55 531.927,202.55 531.927,220.846 529.659,220.846 529.659,231.52 523.198,231.52 523.198,244.226 511.214,244.226 511.214,277.6 508.723,277.6 508.723,338.192 490.142,338.192 490.142,407.264 508.723,407.264 527.305,407.264 555.716,407.264 555.716,277.6" fill="#95a9a7"/><polygon points="622.722,315.937 564.268,315.937 564.268,317 566.913,317 566.913,415.841 620.077,415.841 620.077,317 622.722,317" fill="#95a9a7"/><rect width="51.826" height="82.336" rx="0" ry="0" transform="translate(304.346 340.557)" fill="#95a9a7"/><rect width="89.132" height="40.151" rx="0" ry="0" transform="translate(207.408 382.741)" fill="#95a9a7"/><rect width="19.567" height="98.6" rx="0" ry="0" transform="translate(255.183 293.036)" fill="#95a9a7"/><rect width="1.016" height="53.62" rx="0" ry="0" transform="translate(259.503 266.734)" fill="#95a9a7"/><rect width="1.016" height="53.62" rx="0" ry="0" transform="translate(262.807 270.8)" fill="#95a9a7"/><rect width="11.96" height="13.214" rx="0" ry="0" transform="translate(256.692 286.937)" fill="#95a9a7"/><rect width="34.052" height="67.596" rx="0" ry="0" transform="translate(293.047 355.296)" fill="#95a9a7"/><rect width="63.921" height="139.13" rx="0" ry="0" transform="translate(364.573 283.762)" fill="#95a9a7"/><rect width="51.361" height="23.173" rx="0" ry="0" transform="translate(370.853 278.98)" fill="#95a9a7"/><rect width="73.831" height="1.627" rx="0" ry="0" transform="translate(359.618 286.673)" fill="#95a9a7"/><rect width="30.119" height="70.265" rx="0" ry="0" transform="translate(352.992 352.628)" fill="#95a9a7"/><rect width="34.561" height="72.933" rx="0" ry="0" transform="translate(137.27 349.959)" fill="#95a9a7"/><g><rect width="68.867" height="92.755" rx="0" ry="0" transform="translate(148.452 330.138)" fill="#95a9a7"/><rect width="74.664" height="3.558" rx="0" ry="0" transform="translate(144.434 326.58)" fill="#95a9a7"/><rect width="30.265" height="18.805" rx="0" ry="0" transform="translate(151.501 316.923)" fill="#95a9a7"/><rect width="5.082" height="11.436" rx="0" ry="0" transform="translate(191.652 316.923)" fill="#95a9a7"/><rect width="5.591" height="11.436" rx="0" ry="0" transform="translate(201.817 316.923)" fill="#95a9a7"/></g><rect width="36.085" height="28.208" rx="0" ry="0" transform="translate(118.465 394.685)" fill="#95a9a7"/><rect width="17.087" height="40.151" rx="0" ry="0" transform="translate(104.835 382.741)" fill="#95a9a7"/><rect width="29.204" height="14.104" rx="0" ry="0" transform="translate(84.175 408.789)" fill="#95a9a7"/><rect width="359.849" height="31.257" rx="0" ry="0" transform="translate(422.215 391.635)" fill="#95a9a7"/><path d="M753.33,305.111c-2.266,0-4.123,1.743-4.308,3.961l-5.064-.165c.013-.496.021-.993.021-1.491c0-6.303-1.088-12.439-3.173-18.194l4.231-1.558c.665,1.534,2.191,2.607,3.969,2.607c2.388,0,4.324-1.936,4.324-4.324s-1.936-4.324-4.324-4.324-4.324,1.936-4.324,4.324c0,.441.066.866.189,1.267l-4.23,1.557c-2.41-6.465-6.085-12.439-10.9-17.614l3.311-3.102c.776.742,1.827,1.198,2.986,1.198c2.388,0,4.324-1.936,4.324-4.324s-1.936-4.324-4.324-4.324-4.324,1.936-4.324,4.324c0,1.057.38,2.025,1.01,2.777l-3.311,3.103c-.341-.36-.687-.717-1.04-1.069-5.013-5.013-10.849-8.904-17.203-11.547l1.821-4.434c.413.131.853.202,1.309.202c2.388,0,4.324-1.936,4.324-4.324s-1.936-4.324-4.324-4.324-4.324,1.936-4.324,4.324c0,1.762,1.054,3.277,2.566,3.951l-1.817,4.424c-5.685-2.304-11.777-3.615-18.059-3.842l.197-6.061c.046.001.091.003.137.003c2.388,0,4.324-1.936,4.324-4.324s-1.936-4.324-4.324-4.324-4.324,1.936-4.324,4.324c0,2.179,1.612,3.98,3.708,4.28l-.198,6.087c-.496-.014-.993-.021-1.491-.021-6.049,0-11.943,1.002-17.495,2.925l-1.744-4.947c1.573-.647,2.68-2.194,2.68-4c0-2.388-1.936-4.324-4.324-4.324s-4.325,1.936-4.325,4.324s1.936,4.324,4.325,4.324c.413,0,.812-.059,1.19-.167l1.744,4.948c-6.733,2.402-12.95,6.167-18.311,11.154l-3.16-3.372c.707-.77,1.139-1.796,1.139-2.924c0-2.388-1.936-4.324-4.324-4.324s-4.325,1.936-4.325,4.324s1.936,4.324,4.325,4.324c1.088,0,2.081-.403,2.841-1.066l3.155,3.367c-.36.341-.717.687-1.069,1.039-4.459,4.459-8.029,9.569-10.624,15.116L638.374,283c.145-.433.225-.896.225-1.378c0-2.388-1.936-4.324-4.324-4.324s-4.324,1.936-4.324,4.324s1.936,4.324,4.324,4.324c1.736,0,3.233-1.024,3.921-2.5l3.992,1.843c-2.866,6.274-4.49,13.094-4.745,20.156l-5.155-.168c-.064-2.333-1.973-4.204-4.321-4.204-2.388,0-4.324,1.936-4.324,4.324s1.936,4.324,4.324,4.324c2.267,0,4.125-1.745,4.308-3.964l5.153.168c-.014.496-.021.993-.021,1.491c0,6.303,1.088,12.439,3.173,18.194l-4.231,1.558c-.665-1.534-2.191-2.607-3.969-2.607-2.388,0-4.324,1.936-4.324,4.324s1.936,4.324,4.324,4.324s4.325-1.936,4.325-4.324c0-.441-.066-.866-.189-1.267l4.23-1.558c2.41,6.465,6.085,12.439,10.9,17.614l-3.311,3.102c-.776-.741-1.827-1.198-2.986-1.198-2.388,0-4.324,1.936-4.324,4.324s1.936,4.324,4.324,4.324s4.325-1.936,4.325-4.324c0-1.057-.38-2.025-1.01-2.777l3.311-3.102c.341.36.687.717,1.039,1.069c3.376,3.376,7.126,6.243,11.156,8.563l-26.075,48.061h-4.68v1.374h-2.292v2.729h119.137v-2.729h-2.292v-1.374h-4.68l-26.075-48.061c3.474-2,6.739-4.406,9.737-7.194l4.225,4.509c-.907.793-1.481,1.957-1.481,3.257c0,2.388,1.936,4.324,4.324,4.324s4.325-1.936,4.325-4.324-1.936-4.324-4.325-4.324c-.916,0-1.764.285-2.463.771l-4.255-4.541c.36-.341.717-.687,1.069-1.039c4.459-4.459,8.029-9.569,10.625-15.116l4.706,2.172c-.085.339-.131.694-.131,1.059c0,2.388,1.936,4.324,4.324,4.324s4.324-1.936,4.324-4.324-1.936-4.324-4.324-4.324c-1.853,0-3.433,1.165-4.048,2.803l-4.648-2.146c2.866-6.274,4.49-13.094,4.745-20.156l5.066.165c.062,2.334,1.972,4.207,4.321,4.207c2.388,0,4.325-1.936,4.325-4.324s-1.936-4.323-4.324-4.323Zm-10.793,2.306c0,.482-.007.964-.02,1.444l-14.919-.485c.008-.319.012-.639.012-.959c0-4.397-.774-8.616-2.191-12.53l14.032-5.166c2.028,5.598,3.086,11.565,3.086,17.696Zm-15.66.936l-33.281-1.082c-.011-.217-.046-.428-.102-.63l31.248-11.505c1.388,3.836,2.146,7.971,2.146,12.281.001.313-.003.625-.011.936Zm-72.368-1.872l33.281,1.082c.011.217.046.428.102.63l-31.248,11.505c-1.388-3.836-2.146-7.971-2.146-12.281-.001-.313.003-.625.011-.936Zm38.462-.87l24.284-22.755c3.15,3.404,5.655,7.412,7.32,11.83L693.328,306.19c-.096-.207-.216-.401-.357-.579Zm-.328-.351c-.188-.17-.399-.316-.627-.432l12.649-30.801c4.662,1.958,8.831,4.865,12.263,8.477L692.643,305.26Zm-1.071-.615c-.175-.055-.357-.094-.544-.116l1.082-33.278c4.266.165,8.345,1.071,12.111,2.594l-12.649,30.8Zm-1.025-.132c-.203.01-.401.041-.591.091l-11.069-31.405c3.702-1.281,7.674-1.979,11.806-1.979.313,0,.625.004.936.012l-1.082,33.281Zm-1.044.251c-.221.099-.428.226-.616.375l-22.755-24.284c3.525-3.262,7.698-5.833,12.302-7.495l11.069,31.404Zm-.966.703c-.143.158-.268.332-.373.518l-30.228-13.954c1.93-4.092,4.602-7.767,7.846-10.848l22.755,24.284Zm-.576.953c-.077.21-.129.432-.156.662L654.527,306c.186-4.809,1.313-9.382,3.205-13.536l30.229,13.956Zm.096,2.223c.078.167.171.326.279.474l-.198.365-24.007,22.495c-3.15-3.404-5.655-7.412-7.32-11.83l31.246-11.504Zm-.646,2.178l-15.072,27.781c-2.912-1.72-5.565-3.835-7.881-6.273l22.953-21.508Zm1.639-1.006c.102.07.209.133.32.19l-12.649,30.801c-1.218-.512-2.402-1.089-3.549-1.726l15.878-29.265Zm.764.374c.175.055.357.094.545.116l-1.082,33.278c-4.266-.165-8.345-1.071-12.111-2.594l12.648-30.8Zm.879,33.424c-.313,0-.625-.004-.936-.012l1.082-33.281c.203-.01.401-.041.591-.091l11.069,31.405c-3.702,1.281-7.674,1.979-11.806,1.979Zm1.19-33.544c.159-.072.311-.156.453-.254l15.877,29.265c-1.677.932-3.435,1.735-5.262,2.394l-11.068-31.405Zm2.671,1.82l20.7,22.091c-1.893,1.752-3.973,3.304-6.206,4.623l-14.494-26.714Zm-.905-1.669l-.598-1.103c.062-.086.12-.175.172-.268l30.228,13.954c-1.93,4.092-4.603,7.767-7.846,10.848L693.649,310.22Zm-.224-1.806c.077-.211.129-.433.156-.662l33.278,1.082c-.186,4.81-1.313,9.382-3.205,13.536l-30.229-13.956Zm-16.977,33.059l-5.682,13.835c-1.732-.721-3.424-1.537-5.071-2.445l7.134-13.149c1.169.649,2.376,1.238,3.619,1.759Zm.444.182c3.844,1.555,8.007,2.48,12.362,2.648l-.485,14.922c-6.108-.221-12.03-1.496-17.558-3.736l5.681-13.834Zm12.842,2.666c.319.008.638.012.959.012c4.216,0,8.268-.712,12.045-2.02l4.971,14.102c-5.4,1.87-11.133,2.844-17.015,2.844-.483,0-.964-.007-1.444-.02l.484-14.918Zm13.457-2.167c1.862-.672,3.655-1.491,5.366-2.44l7.134,13.149c-2.417,1.334-4.933,2.469-7.529,3.395l-4.971-14.104Zm36.095-52.884l-14.034,5.167c-1.699-4.509-4.256-8.599-7.471-12.073l10.907-10.22c4.681,5.032,8.254,10.84,10.598,17.126Zm-11.934-18.512c.341.341.676.687,1.007,1.036l-10.905,10.219c-3.503-3.688-7.757-6.654-12.515-8.652l5.681-13.835c6.18,2.571,11.856,6.356,16.732,11.232Zm-17.177-11.414l-5.682,13.835c-3.844-1.555-8.007-2.48-12.361-2.648l.485-14.923c6.108.221,12.03,1.496,17.558,3.736Zm-19.482-3.771c.482,0,.964.007,1.444.02l-.485,14.919c-.319-.008-.638-.012-.959-.012-4.216,0-8.268.712-12.045,2.02l-4.971-14.102c5.4-1.871,11.133-2.845,17.016-2.845Zm-17.469,3.003l4.971,14.103c-4.699,1.696-8.958,4.32-12.555,7.649l-10.22-10.907c5.212-4.848,11.258-8.508,17.804-10.845Zm-19.19,12.182c.341-.341.687-.676,1.036-1.007l10.219,10.905c-3.31,3.144-6.039,6.895-8.008,11.072L643.7,285.459c2.524-5.395,5.997-10.365,10.334-14.701Zm-10.536,15.137l13.58,6.269c-1.931,4.239-3.081,8.905-3.271,13.814l-14.922-.485c.248-6.866,1.827-13.498,4.613-19.598Zm-4.649,21.522c0-.482.007-.964.02-1.444l14.919.485c-.008.319-.012.638-.012.959c0,4.397.774,8.616,2.191,12.53l-14.032,5.166c-2.028-5.598-3.086-11.566-3.086-17.696Zm3.251,18.147l14.034-5.167c1.699,4.509,4.256,8.599,7.471,12.073l-10.907,10.22c-4.68-5.032-8.254-10.84-10.598-17.126Zm11.934,18.512c-.341-.341-.676-.687-1.007-1.035l10.905-10.219c2.369,2.494,5.083,4.657,8.063,6.415l-7.136,13.154c-3.91-2.255-7.548-5.038-10.825-8.315Zm88.163,57.643h-103.008l25.818-47.588c1.692.933,3.431,1.771,5.211,2.512l-1.821,4.434c-.413-.131-.853-.202-1.31-.202-2.388,0-4.324,1.936-4.324,4.324s1.936,4.324,4.324,4.324s4.325-1.936,4.325-4.324c0-1.762-1.054-3.277-2.566-3.951l1.817-4.424c5.685,2.304,11.777,3.615,18.059,3.842l-.147,4.535c-2.342.053-4.224,1.967-4.224,4.322c0,2.388,1.936,4.324,4.325,4.324s4.324-1.936,4.324-4.324c0-2.26-1.734-4.114-3.944-4.307l.147-4.535c.496.014.993.021,1.491.021c6.049,0,11.943-1.002,17.495-2.925l1.554,4.409c-1.471.69-2.491,2.184-2.491,3.917c0,2.388,1.936,4.324,4.324,4.324s4.324-1.936,4.324-4.324-1.936-4.324-4.324-4.324c-.485,0-.952.081-1.387.229l-1.547-4.389c2.667-.952,5.253-2.117,7.737-3.487l25.818,47.587ZM716.528,352.39l-7.136-13.154c2.287-1.349,4.417-2.938,6.355-4.731l10.22,10.907c-2.907,2.703-6.073,5.037-9.439,6.978Zm10.824-8.314c-.341.341-.687.676-1.036,1.007l-10.219-10.905c3.31-3.144,6.038-6.895,8.007-11.072l13.581,6.269c-2.523,5.394-5.996,10.364-10.333,14.701Zm10.536-15.137l-13.58-6.269c1.931-4.239,3.081-8.906,3.271-13.814l14.922.485c-.248,6.866-1.827,13.498-4.613,19.598Z" fill="#95a9a7"/><rect width="55.568" height="81.418" rx="0" ry="0" transform="translate(763.767 341.475)" fill="#95a9a7"/><rect width="55.568" height="49.304" rx="0" ry="0" transform="translate(811.203 373.129)" fill="#95a9a7"/><rect width="31.172" height="41.375" rx="0" ry="0" transform="translate(595.707 365.889)" fill="#95a9a7"/><rect width="39.304" height="158.846" rx="0" ry="0" transform="translate(791.551 264.046)" fill="#95a9a7"/><polygon points="895.572,422.892 843.731,422.892 843.731,330.138 883.035,330.138" fill="#95a9a7"/><rect width="45.403" height="21.174" rx="0" ry="0" transform="translate(872.87 401.719)" fill="#95a9a7"/><rect width="1.355" height="43.166" rx="0" ry="0" transform="translate(820.69 230.861)" fill="#95a9a7"/><rect width="1.355" height="43.166" rx="0" ry="0" transform="translate(825.265 240.124)" fill="#95a9a7"/><rect width="1.355" height="43.166" rx="0" ry="0" transform="translate(816.54 246.083)" fill="#95a9a7"/><rect width="18.551" height="14.612" rx="0" ry="0" transform="translate(845.764 322.641)" fill="#95a9a7"/><rect width="14.485" height="8.213" rx="0" ry="0" transform="translate(847.797 317.432)" fill="#95a9a7"/><rect width="3.558" height="5.9" rx="0" ry="0" transform="translate(871.684 326.921)" fill="#95a9a7"/><rect width="5.082" height="11.283" rx="0" ry="0" transform="translate(876.501 321.538)" fill="#95a9a7"/></g><g><g><rect width="47.119" height="151.879" rx="0" ry="0" transform="translate(595.55 299.878)" fill="#658280"/><rect width="54.16" height="1.539" rx="0" ry="0" transform="translate(592.03 300.778)" fill="#658280"/><rect width="51.229" height="1.534" rx="0" ry="0" transform="translate(593.495 322.112)" fill="#658280"/><rect width="51.229" height="1.534" rx="0" ry="0" transform="translate(593.495 342.773)" fill="#658280"/><rect width="51.229" height="1.534" rx="0" ry="0" transform="translate(593.495 363.434)" fill="#658280"/><rect width="51.229" height="1.534" rx="0" ry="0" transform="translate(593.495 384.095)" fill="#658280"/><rect width="51.229" height="1.534" rx="0" ry="0" transform="translate(593.495 404.756)" fill="#658280"/><rect width="51.229" height="1.534" rx="0" ry="0" transform="translate(593.495 425.417)" fill="#658280"/><rect width="57.742" height="4.196" rx="0" ry="0" transform="translate(590.239 296.582)" fill="#658280"/><rect width="4.896" height="12.133" rx="0" ry="0" transform="translate(599.791 307.306)" opacity="0.29" fill="#658280"/><rect width="4.896" height="12.133" rx="0" ry="0" transform="translate(610.742 307.306)" fill="#658280"/><rect width="4.896" height="12.133" rx="0" ry="0" transform="translate(621.693 307.306)" fill="#658280"/><rect width="4.896" height="12.133" rx="0" ry="0" transform="translate(632.643 307.306)" fill="#658280"/><rect width="4.896" height="12.133" rx="0" ry="0" transform="translate(599.791 327.143)" fill="#658280"/><rect width="4.896" height="12.133" rx="0" ry="0" transform="translate(610.742 327.143)" opacity="0.29" fill="#658280"/><rect width="4.896" height="12.133" rx="0" ry="0" transform="translate(621.693 327.143)" fill="#658280"/><rect width="4.896" height="12.133" rx="0" ry="0" transform="translate(632.643 327.143)" fill="#658280"/><rect width="4.896" height="12.133" rx="0" ry="0" transform="translate(599.791 347.804)" fill="#658280"/><rect width="4.896" height="12.133" rx="0" ry="0" transform="translate(610.742 347.804)" fill="#658280"/><rect width="4.896" height="12.133" rx="0" ry="0" transform="translate(621.693 347.804)" fill="#658280"/><rect width="4.896" height="12.133" rx="0" ry="0" transform="translate(632.643 347.804)" opacity="0.29" fill="#658280"/><rect width="4.896" height="12.133" rx="0" ry="0" transform="translate(599.791 368.465)" fill="#658280"/><rect width="4.896" height="12.133" rx="0" ry="0" transform="translate(610.742 368.465)" opacity="0.29" fill="#658280"/><rect width="4.896" height="12.133" rx="0" ry="0" transform="translate(621.693 368.465)" opacity="0.29" fill="#658280"/><rect width="4.896" height="12.133" rx="0" ry="0" transform="translate(632.643 368.465)" fill="#658280"/><rect width="4.896" height="12.133" rx="0" ry="0" transform="translate(599.791 389.126)" opacity="0.29" fill="#658280"/><rect width="4.896" height="12.133" rx="0" ry="0" transform="translate(610.742 389.126)" fill="#658280"/><rect width="4.896" height="12.133" rx="0" ry="0" transform="translate(621.693 389.126)" fill="#658280"/><rect width="4.896" height="12.133" rx="0" ry="0" transform="translate(632.643 389.126)" fill="#658280"/><rect width="4.896" height="12.133" rx="0" ry="0" transform="translate(599.791 409.787)" fill="#658280"/><rect width="4.896" height="12.133" rx="0" ry="0" transform="translate(610.742 409.787)" fill="#658280"/><rect width="4.896" height="12.133" rx="0" ry="0" transform="translate(621.693 409.787)" opacity="0.29" fill="#658280"/><rect width="4.896" height="12.133" rx="0" ry="0" transform="translate(632.643 409.787)" fill="#658280"/><rect width="4.896" height="12.133" rx="0" ry="0" transform="translate(599.791 430.448)" fill="#658280"/><rect width="4.896" height="12.133" rx="0" ry="0" transform="translate(610.742 430.448)" opacity="0.29" fill="#658280"/><rect width="4.896" height="12.133" rx="0" ry="0" transform="translate(621.693 430.448)" fill="#658280"/><rect width="4.896" height="12.133" rx="0" ry="0" transform="translate(632.643 430.448)" opacity="0.29" fill="#658280"/><rect width="16.026" height="7.888" rx="0" ry="0" transform="translate(598.524 290.792)" fill="#658280"/><rect width="18.2" height="1.348" rx="0" ry="0" transform="translate(597.437 290.567)" fill="#658280"/></g><g><polygon points="528.016,451.757 465.249,451.757 465.249,307.451 528.016,292.098" fill="#658280"/><rect width="5.515" height="146.846" rx="0" ry="0" transform="translate(462.491 304.911)" fill="#658280"/><rect width="5.515" height="150.984" rx="0" ry="0" transform="translate(478.183 300.773)" fill="#658280"/><rect width="5.515" height="155.282" rx="0" ry="0" transform="translate(493.875 296.475)" fill="#658280"/><rect width="5.515" height="158.784" rx="0" ry="0" transform="translate(509.566 292.973)" fill="#658280"/><rect width="5.515" height="162.508" rx="0" ry="0" transform="translate(525.258 289.249)" fill="#658280"/><rect width="7.32" height="11.152" rx="0" ry="0" transform="translate(469.434 317.234)" opacity="0.29" fill="#658280"/><rect width="7.32" height="11.152" rx="0" ry="0" transform="translate(485.126 317.234)" opacity="0.29" fill="#658280"/><rect width="7.32" height="11.152" rx="0" ry="0" transform="translate(500.818 317.234)" fill="#658280"/><rect width="7.32" height="11.152" rx="0" ry="0" transform="translate(516.51 317.234)" opacity="0.29" fill="#658280"/><rect width="7.32" height="11.152" rx="0" ry="0" transform="translate(469.434 336.653)" fill="#658280"/><rect width="7.32" height="11.152" rx="0" ry="0" transform="translate(485.126 336.653)" fill="#658280"/><rect width="7.32" height="11.152" rx="0" ry="0" transform="translate(500.818 336.653)" opacity="0.29" fill="#658280"/><rect width="7.32" height="11.152" rx="0" ry="0" transform="translate(516.51 336.653)" opacity="0.29" fill="#658280"/><rect width="7.32" height="11.152" rx="0" ry="0" transform="translate(469.434 356.072)" opacity="0.29" fill="#658280"/><rect width="7.32" height="11.152" rx="0" ry="0" transform="translate(485.126 356.072)" opacity="0.29" fill="#658280"/><rect width="7.32" height="11.152" rx="0" ry="0" transform="translate(500.818 356.072)" opacity="0.29" fill="#658280"/><rect width="7.32" height="11.152" rx="0" ry="0" transform="translate(516.51 356.072)" fill="#658280"/><rect width="7.32" height="11.152" rx="0" ry="0" transform="translate(469.434 375.491)" opacity="0.29" fill="#658280"/><rect width="7.32" height="11.152" rx="0" ry="0" transform="translate(485.126 375.491)" fill="#658280"/><rect width="7.32" height="11.152" rx="0" ry="0" transform="translate(500.818 375.491)" opacity="0.29" fill="#658280"/><rect width="7.32" height="11.152" rx="0" ry="0" transform="translate(516.51 375.491)" opacity="0.29" fill="#658280"/><rect width="7.32" height="11.152" rx="0" ry="0" transform="translate(469.434 394.909)" opacity="0.29" fill="#658280"/><rect width="7.32" height="11.152" rx="0" ry="0" transform="translate(485.126 394.909)" opacity="0.29" fill="#658280"/><rect width="7.32" height="11.152" rx="0" ry="0" transform="translate(500.818 394.909)" fill="#658280"/><rect width="7.32" height="11.152" rx="0" ry="0" transform="translate(516.51 394.909)" opacity="0.29" fill="#658280"/><rect width="7.32" height="11.152" rx="0" ry="0" transform="translate(469.434 414.328)" fill="#658280"/><rect width="7.32" height="11.152" rx="0" ry="0" transform="translate(485.126 414.328)" fill="#658280"/><rect width="7.32" height="11.152" rx="0" ry="0" transform="translate(500.818 414.328)" opacity="0.29" fill="#658280"/><rect width="7.32" height="11.152" rx="0" ry="0" transform="translate(516.51 414.328)" opacity="0.29" fill="#658280"/><rect width="7.32" height="11.152" rx="0" ry="0" transform="translate(469.434 433.746)" opacity="0.29" fill="#658280"/><rect width="7.32" height="11.152" rx="0" ry="0" transform="translate(485.126 433.746)" fill="#658280"/><rect width="7.32" height="11.152" rx="0" ry="0" transform="translate(500.818 433.746)" opacity="0.29" fill="#658280"/><rect width="7.32" height="11.152" rx="0" ry="0" transform="translate(516.51 433.746)" fill="#658280"/></g><polygon points="286.197,314.364 286.197,315.862 284.705,315.862 284.705,320.132 310.968,320.132 310.968,451.757 267.87,451.757 267.87,326.999 267.87,320.132 267.87,315.862 266.306,315.862 266.306,314.364" fill="#658280"/><rect width="36.916" height="77.605" rx="0" ry="0" transform="translate(359.618 374.152)" fill="#658280"/><g><rect width="30.008" height="95.395" rx="0" ry="0" transform="translate(198.721 356.362)" fill="#658280"/><rect width="32.701" height="75.519" rx="0" ry="0" transform="translate(222.785 376.238)" fill="#658280"/><rect width="13.268" height="11.416" rx="0" ry="0" transform="translate(209.517 352.533)" fill="#658280"/><rect width="34.859" height="2.792" rx="0" ry="0" transform="translate(225.029 374.994)" fill="#658280"/></g><rect width="36.663" height="43.128" rx="0" ry="0" transform="translate(251.974 408.629)" fill="#658280"/><rect width="29.823" height="78.208" rx="0" ry="0" transform="translate(133.48 373.549)" fill="#658280"/><rect width="39.234" height="39.234" rx="0" ry="0" transform="translate(107.6 412.523)" fill="#658280"/><rect width="24.541" height="45.646" rx="0" ry="0" transform="translate(64.398 406.111)" fill="#658280"/><rect width="58.003" height="14.298" rx="0" ry="0" transform="translate(84.175 437.459)" fill="#658280"/><rect width="29.728" height="18.919" rx="0" ry="0" transform="translate(42.18 432.838)" fill="#658280"/><rect width="46.214" height="28.865" rx="0" ry="0" transform="translate(163.303 422.892)" fill="#658280"/><rect width="71.987" height="12.435" rx="0" ry="0" transform="translate(298.867 439.322)" fill="#658280"/><rect width="71.987" height="12.435" rx="0" ry="0" transform="translate(426.498 439.322)" fill="#658280"/><polygon points="368.051,402.817 340.69,402.817 329.119,445.54 368.051,445.54" fill="#658280"/><rect width="0.762" height="47.394" rx="0" ry="0" transform="translate(380.697 340.654)" fill="#658280"/><rect width="1.016" height="27.965" rx="0" ry="0" transform="translate(384.509 356.692)" fill="#658280"/><rect width="13.843" height="13.843" rx="0" ry="0" transform="translate(379.062 361.648)" fill="#658280"/><rect width="18.334" height="1.24" rx="0" ry="0" transform="translate(376.725 360.572)" fill="#658280"/><rect width="44.729" height="40.028" rx="0" ry="0" transform="translate(389.82 411.728)" fill="#658280"/><rect width="28.737" height="77.235" rx="0" ry="0" transform="translate(425.995 367.664)" fill="#658280"/><rect width="45.912" height="69.573" rx="0" ry="0" transform="translate(538.227 382.184)" fill="#658280"/><rect width="52.346" height="25.636" rx="0" ry="0" transform="translate(523.83 426.121)" fill="#658280"/><rect width="34.04" height="9.176" rx="0" ry="0" transform="translate(581.598 442.581)" fill="#658280"/><rect width="55.344" height="25.636" rx="0" ry="0" transform="translate(634.027 426.121)" fill="#658280"/><g><rect width="68.867" height="92.755" rx="0" ry="0" transform="matrix(-1 0 0-1 724.944 451.757)" fill="#658280"/><rect width="74.664" height="3.558" rx="0" ry="0" transform="matrix(-1 0 0-1 728.963 359.003)" fill="#658280"/><rect width="30.265" height="18.805" rx="0" ry="0" transform="matrix(-1 0 0-1 721.891 364.593)" fill="#658280"/><rect width="5.082" height="11.436" rx="0" ry="0" transform="matrix(-1 0 0-1 681.74 357.223)" fill="#658280"/><rect width="5.591" height="11.436" rx="0" ry="0" transform="matrix(-1 0 0-1 671.573 357.223)" fill="#658280"/></g><g><rect width="54.513" height="135.464" rx="0" ry="0" transform="matrix(-1 0 0-1 826.795 451.757)" fill="#658280"/><rect width="57.611" height="3.829" rx="0" ry="0" transform="matrix(-1 0 0-1 828.344 317.792)" fill="#658280"/><rect width="50.848" height="18.199" rx="0" ry="0" transform="matrix(-1 0 0-1 824.963 327.261)" fill="#658280"/><rect width="20.135" height="19.884" rx="0" ry="0" transform="matrix(-1 0 0-1 821.072 321.501)" fill="#658280"/><polygon points="809.421,307.221 821.073,307.221 821.073,296.753 812.715,296.753" fill="#658280"/><rect width="1.13" height="23.315" rx="0" ry="0" transform="matrix(-1 0 0-1 816.373 311.38)" fill="#658280"/><path d="M814.797,286.857c0,.667.454,1.208,1.014,1.208s1.015-.541,1.015-1.208c0-.668-.454-1.209-1.015-1.209s-1.014.541-1.014,1.209Z" fill="#658280"/></g><rect width="24.396" height="55.923" rx="0" ry="0" transform="translate(819.335 395.834)" fill="#658280"/><rect width="27.822" height="83.188" rx="0" ry="0" transform="translate(749.844 368.569)" fill="#658280"/><polygon points="763.767,451.757 724.576,451.757 724.576,407.264 757.654,421.92" fill="#658280"/><rect width="59.852" height="24.164" rx="0" ry="0" transform="translate(835.72 427.593)" fill="#658280"/><rect width="34.767" height="96.461" rx="0" ry="0" transform="translate(873.463 355.296)" fill="#658280"/><rect width="57.601" height="18.01" rx="0" ry="0" transform="translate(900.098 433.746)" fill="#658280"/><rect width="38.138" height="3.162" rx="0" ry="0" transform="translate(871.684 353.53)" fill="#658280"/><rect width="0.762" height="19.439" rx="0" ry="0" transform="translate(902.808 339.919)" fill="#658280"/><rect width="0.762" height="15.594" rx="0" ry="0" transform="translate(897.726 342.38)" fill="#658280"/><polygon points="921.105,391.635 905.604,391.635 905.604,435.83 927.713,435.83" fill="#658280"/></g></g><g><g opacity="0.52"><rect width="2.271" height="2.271" rx="0" ry="0" transform="translate(201.817 361.192)" fill="#fff"/><rect width="2.271" height="2.271" rx="0" ry="0" transform="translate(206.381 361.192)" fill="#fff"/><rect width="2.271" height="2.271" rx="0" ry="0" transform="translate(201.817 366.528)" fill="#fff"/><rect width="2.271" height="2.271" rx="0" ry="0" transform="translate(206.381 366.528)" fill="#fff"/><rect width="2.271" height="2.271" rx="0" ry="0" transform="translate(201.817 371.687)" fill="#fff"/><rect width="2.271" height="2.271" rx="0" ry="0" transform="translate(211.453 361.192)" fill="#fff"/></g><rect width="1.549" height="8.575" rx="0" ry="0" transform="translate(368.051 292.973)" opacity="0.5" fill="#fff"/><rect width="1.549" height="8.575" rx="0" ry="0" transform="translate(373.39 292.973)" opacity="0.5" fill="#fff"/><rect width="1.549" height="8.575" rx="0" ry="0" transform="translate(378.729 292.973)" opacity="0.5" fill="#fff"/><rect width="1.549" height="8.575" rx="0" ry="0" transform="translate(384.068 292.973)" opacity="0.5" fill="#fff"/><rect width="1.549" height="8.575" rx="0" ry="0" transform="translate(389.407 292.973)" opacity="0.5" fill="#fff"/><rect width="1.549" height="8.575" rx="0" ry="0" transform="translate(394.746 292.973)" opacity="0.5" fill="#fff"/><rect width="1.549" height="8.575" rx="0" ry="0" transform="translate(400.085 292.973)" opacity="0.5" fill="#fff"/><rect width="1.549" height="8.575" rx="0" ry="0" transform="translate(405.423 292.973)" opacity="0.5" fill="#fff"/><rect width="1.549" height="8.575" rx="0" ry="0" transform="translate(410.762 292.973)" opacity="0.5" fill="#fff"/><rect width="1.549" height="8.575" rx="0" ry="0" transform="translate(416.101 292.973)" opacity="0.5" fill="#fff"/><rect width="1.549" height="8.575" rx="0" ry="0" transform="translate(421.44 292.973)" opacity="0.5" fill="#fff"/><rect width="1.549" height="8.575" rx="0" ry="0" transform="translate(368.051 304.911)" opacity="0.5" fill="#fff"/><rect width="1.549" height="8.575" rx="0" ry="0" transform="translate(373.39 304.911)" opacity="0.5" fill="#fff"/><rect width="1.549" height="8.575" rx="0" ry="0" transform="translate(378.729 304.911)" opacity="0.5" fill="#fff"/><rect width="1.549" height="8.575" rx="0" ry="0" transform="translate(384.068 304.911)" opacity="0.5" fill="#fff"/><rect width="1.549" height="8.575" rx="0" ry="0" transform="translate(389.407 304.911)" opacity="0.5" fill="#fff"/><rect width="1.549" height="8.575" rx="0" ry="0" transform="translate(394.746 304.911)" opacity="0.5" fill="#fff"/><rect width="1.549" height="8.575" rx="0" ry="0" transform="translate(400.085 304.911)" opacity="0.5" fill="#fff"/><rect width="1.549" height="8.575" rx="0" ry="0" transform="translate(405.423 304.911)" opacity="0.5" fill="#fff"/><rect width="1.549" height="8.575" rx="0" ry="0" transform="translate(410.762 304.911)" opacity="0.5" fill="#fff"/><rect width="1.549" height="8.575" rx="0" ry="0" transform="translate(416.101 304.911)" opacity="0.5" fill="#fff"/><rect width="1.549" height="8.575" rx="0" ry="0" transform="translate(421.44 304.911)" opacity="0.5" fill="#fff"/><rect width="1.549" height="8.575" rx="0" ry="0" transform="translate(368.051 316.849)" opacity="0.5" fill="#fff"/><rect width="1.549" height="8.575" rx="0" ry="0" transform="translate(373.39 316.849)" opacity="0.5" fill="#fff"/><rect width="1.549" height="8.575" rx="0" ry="0" transform="translate(378.729 316.849)" opacity="0.5" fill="#fff"/><rect width="1.549" height="8.575" rx="0" ry="0" transform="translate(384.068 316.849)" opacity="0.5" fill="#fff"/><rect width="1.549" height="8.575" rx="0" ry="0" transform="translate(389.407 316.849)" opacity="0.5" fill="#fff"/><rect width="1.549" height="8.575" rx="0" ry="0" transform="translate(394.746 316.849)" opacity="0.5" fill="#fff"/><rect width="1.549" height="8.575" rx="0" ry="0" transform="translate(400.085 316.849)" opacity="0.5" fill="#fff"/><rect width="1.549" height="8.575" rx="0" ry="0" transform="translate(405.423 316.849)" opacity="0.5" fill="#fff"/><rect width="1.549" height="8.575" rx="0" ry="0" transform="translate(410.762 316.849)" opacity="0.5" fill="#fff"/><rect width="1.549" height="8.575" rx="0" ry="0" transform="translate(416.101 316.849)" opacity="0.5" fill="#fff"/><rect width="1.549" height="8.575" rx="0" ry="0" transform="translate(421.44 316.849)" opacity="0.5" fill="#fff"/><rect width="1.549" height="8.575" rx="0" ry="0" transform="translate(384.068 328.787)" opacity="0.5" fill="#fff"/><rect width="1.549" height="8.575" rx="0" ry="0" transform="translate(389.407 328.787)" opacity="0.5" fill="#fff"/><rect width="1.549" height="8.575" rx="0" ry="0" transform="translate(394.746 328.787)" opacity="0.5" fill="#fff"/><rect width="1.549" height="8.575" rx="0" ry="0" transform="translate(400.085 328.787)" opacity="0.5" fill="#fff"/><rect width="1.549" height="8.575" rx="0" ry="0" transform="translate(405.423 328.787)" opacity="0.5" fill="#fff"/><rect width="1.549" height="8.575" rx="0" ry="0" transform="translate(410.762 328.787)" opacity="0.5" fill="#fff"/><rect width="1.549" height="8.575" rx="0" ry="0" transform="translate(416.101 328.787)" opacity="0.5" fill="#fff"/><rect width="1.549" height="8.575" rx="0" ry="0" transform="translate(421.44 328.787)" opacity="0.5" fill="#fff"/><rect width="1.549" height="8.575" rx="0" ry="0" transform="translate(389.407 341.387)" opacity="0.5" fill="#fff"/><rect width="1.549" height="8.575" rx="0" ry="0" transform="translate(394.746 341.387)" opacity="0.5" fill="#fff"/><rect width="1.549" height="8.575" rx="0" ry="0" transform="translate(400.085 341.387)" opacity="0.5" fill="#fff"/><rect width="1.549" height="8.575" rx="0" ry="0" transform="translate(405.423 341.387)" opacity="0.5" fill="#fff"/><rect width="1.549" height="8.575" rx="0" ry="0" transform="translate(410.762 341.387)" opacity="0.5" fill="#fff"/><rect width="1.549" height="8.575" rx="0" ry="0" transform="translate(416.101 341.387)" opacity="0.5" fill="#fff"/><rect width="1.549" height="8.575" rx="0" ry="0" transform="translate(421.44 341.387)" opacity="0.5" fill="#fff"/><rect width="3.66" height="9.283" rx="0" ry="0" transform="translate(471.264 314.256)" opacity="0.33" fill="#fff"/><rect width="3.66" height="9.283" rx="0" ry="0" transform="translate(471.264 332.012)" opacity="0.33" fill="#fff"/><rect width="3.66" height="9.283" rx="0" ry="0" transform="translate(471.264 349.767)" opacity="0.33" fill="#fff"/><rect width="3.66" height="9.283" rx="0" ry="0" transform="translate(471.264 367.523)" opacity="0.33" fill="#fff"/><rect width="3.66" height="9.283" rx="0" ry="0" transform="translate(471.264 384.263)" opacity="0.33" fill="#fff"/><rect width="3.66" height="9.283" rx="0" ry="0" transform="translate(471.264 402.018)" opacity="0.33" fill="#fff"/><rect width="3.66" height="9.283" rx="0" ry="0" transform="translate(486.956 314.256)" opacity="0.33" fill="#fff"/><rect width="3.66" height="9.283" rx="0" ry="0" transform="translate(486.956 332.012)" opacity="0.33" fill="#fff"/><rect width="3.66" height="9.283" rx="0" ry="0" transform="translate(486.956 349.767)" opacity="0.33" fill="#fff"/><rect width="3.66" height="9.283" rx="0" ry="0" transform="translate(486.956 367.523)" opacity="0.33" fill="#fff"/><rect width="3.66" height="9.283" rx="0" ry="0" transform="translate(486.956 384.263)" opacity="0.33" fill="#fff"/><rect width="3.66" height="9.283" rx="0" ry="0" transform="translate(486.956 402.018)" opacity="0.33" fill="#fff"/><rect width="3.66" height="9.283" rx="0" ry="0" transform="translate(502.648 314.256)" opacity="0.33" fill="#fff"/><rect width="3.66" height="9.283" rx="0" ry="0" transform="translate(502.648 332.012)" opacity="0.33" fill="#fff"/><rect width="3.66" height="9.283" rx="0" ry="0" transform="translate(502.648 349.767)" opacity="0.33" fill="#fff"/><rect width="3.66" height="9.283" rx="0" ry="0" transform="translate(502.648 367.523)" opacity="0.33" fill="#fff"/><rect width="3.66" height="9.283" rx="0" ry="0" transform="translate(502.648 384.263)" opacity="0.33" fill="#fff"/><rect width="3.66" height="9.283" rx="0" ry="0" transform="translate(502.648 402.018)" opacity="0.33" fill="#fff"/><rect width="3.66" height="9.283" rx="0" ry="0" transform="translate(518.34 314.256)" opacity="0.33" fill="#fff"/><rect width="3.66" height="9.283" rx="0" ry="0" transform="translate(518.34 332.012)" opacity="0.33" fill="#fff"/><rect width="3.66" height="9.283" rx="0" ry="0" transform="translate(518.34 349.767)" opacity="0.33" fill="#fff"/><rect width="3.66" height="9.283" rx="0" ry="0" transform="translate(518.34 367.523)" opacity="0.33" fill="#fff"/><rect width="3.66" height="9.283" rx="0" ry="0" transform="translate(518.34 384.263)" opacity="0.33" fill="#fff"/><rect width="3.66" height="9.283" rx="0" ry="0" transform="translate(518.34 402.018)" opacity="0.33" fill="#fff"/><rect width="3.045" height="8.124" rx="0" ry="0" transform="translate(412.312 184.805)" opacity="0.5" fill="#fff"/><rect width="3.045" height="8.124" rx="0" ry="0" transform="translate(419.826 184.805)" opacity="0.5" fill="#fff"/><rect width="3.045" height="8.124" rx="0" ry="0" transform="translate(427.339 184.805)" opacity="0.5" fill="#fff"/><rect width="3.045" height="8.124" rx="0" ry="0" transform="translate(434.853 184.805)" opacity="0.5" fill="#fff"/><rect width="3.045" height="8.124" rx="0" ry="0" transform="translate(412.312 198.335)" opacity="0.5" fill="#fff"/><rect width="3.045" height="8.124" rx="0" ry="0" transform="translate(419.826 198.335)" opacity="0.5" fill="#fff"/><rect width="3.045" height="8.124" rx="0" ry="0" transform="translate(427.339 198.335)" opacity="0.5" fill="#fff"/><rect width="3.045" height="8.124" rx="0" ry="0" transform="translate(434.853 198.335)" opacity="0.5" fill="#fff"/><rect width="3.045" height="8.124" rx="0" ry="0" transform="translate(412.312 211.865)" opacity="0.5" fill="#fff"/><rect width="3.045" height="8.124" rx="0" ry="0" transform="translate(419.826 211.865)" opacity="0.5" fill="#fff"/><rect width="3.045" height="8.124" rx="0" ry="0" transform="translate(443.377 184.805)" opacity="0.5" fill="#fff"/><rect width="1.936" height="7.447" rx="0" ry="0" transform="translate(209.517 267.107)" opacity="0.4" fill="#fff"/><rect width="1.936" height="7.447" rx="0" ry="0" transform="translate(216.351 267.107)" opacity="0.4" fill="#fff"/><rect width="1.936" height="7.447" rx="0" ry="0" transform="translate(224.344 267.107)" opacity="0.4" fill="#fff"/><rect width="1.936" height="7.447" rx="0" ry="0" transform="translate(231.177 267.107)" opacity="0.4" fill="#fff"/><rect width="1.936" height="7.447" rx="0" ry="0" transform="translate(194.336 267.107)" opacity="0.4" fill="#fff"/><rect width="1.936" height="7.447" rx="0" ry="0" transform="translate(201.169 267.107)" opacity="0.4" fill="#fff"/><rect width="1.936" height="7.447" rx="0" ry="0" transform="translate(209.517 280.039)" opacity="0.4" fill="#fff"/><rect width="1.936" height="7.447" rx="0" ry="0" transform="translate(216.351 280.039)" opacity="0.4" fill="#fff"/><rect width="1.936" height="7.447" rx="0" ry="0" transform="translate(224.344 280.039)" opacity="0.4" fill="#fff"/><rect width="1.936" height="7.447" rx="0" ry="0" transform="translate(231.177 280.039)" opacity="0.4" fill="#fff"/><rect width="1.936" height="7.447" rx="0" ry="0" transform="translate(194.336 280.039)" opacity="0.4" fill="#fff"/><rect width="1.936" height="7.447" rx="0" ry="0" transform="translate(201.169 280.039)" opacity="0.4" fill="#fff"/><rect width="1.936" height="7.447" rx="0" ry="0" transform="translate(209.517 292.97)" opacity="0.4" fill="#fff"/><rect width="1.936" height="7.447" rx="0" ry="0" transform="translate(216.351 292.97)" opacity="0.4" fill="#fff"/><rect width="1.936" height="7.447" rx="0" ry="0" transform="translate(224.344 292.97)" opacity="0.4" fill="#fff"/><rect width="1.936" height="7.447" rx="0" ry="0" transform="translate(231.177 292.97)" opacity="0.4" fill="#fff"/><rect width="1.936" height="7.447" rx="0" ry="0" transform="translate(194.336 292.97)" opacity="0.4" fill="#fff"/><rect width="1.936" height="7.447" rx="0" ry="0" transform="translate(201.169 292.97)" opacity="0.4" fill="#fff"/><rect width="3" height="11.549" rx="0" ry="0" transform="translate(570.916 324.18)" opacity="0.5" fill="#fff"/><rect width="3" height="11.549" rx="0" ry="0" transform="translate(580.097 324.18)" opacity="0.5" fill="#fff"/><rect width="3" height="11.549" rx="0" ry="0" transform="translate(588.739 324.18)" opacity="0.5" fill="#fff"/><rect width="2.278" height="6.495" rx="0" ry="0" transform="translate(777.666 326.58)" opacity="0.33" fill="#fff"/><rect width="2.278" height="6.495" rx="0" ry="0" transform="translate(784.805 326.58)" opacity="0.33" fill="#fff"/><rect width="2.278" height="6.495" rx="0" ry="0" transform="translate(777.666 326.58)" opacity="0.33" fill="#fff"/><rect width="2.278" height="6.495" rx="0" ry="0" transform="translate(784.805 326.58)" opacity="0.33" fill="#fff"/><rect width="2.278" height="6.495" rx="0" ry="0" transform="translate(791.551 326.58)" opacity="0.33" fill="#fff"/><rect width="2.278" height="6.495" rx="0" ry="0" transform="translate(798.691 326.58)" opacity="0.33" fill="#fff"/><rect width="2.278" height="6.495" rx="0" ry="0" transform="translate(777.666 338.227)" opacity="0.33" fill="#fff"/><rect width="2.278" height="6.495" rx="0" ry="0" transform="translate(784.805 338.227)" opacity="0.33" fill="#fff"/><rect width="2.278" height="6.495" rx="0" ry="0" transform="translate(777.666 338.227)" opacity="0.33" fill="#fff"/><rect width="2.278" height="6.495" rx="0" ry="0" transform="translate(784.805 338.227)" opacity="0.33" fill="#fff"/><rect width="2.278" height="6.495" rx="0" ry="0" transform="translate(791.551 338.227)" opacity="0.33" fill="#fff"/><rect width="2.278" height="6.495" rx="0" ry="0" transform="translate(798.691 338.227)" opacity="0.33" fill="#fff"/><rect width="2.278" height="6.495" rx="0" ry="0" transform="translate(777.666 350.623)" opacity="0.33" fill="#fff"/><rect width="2.278" height="6.495" rx="0" ry="0" transform="translate(784.805 350.623)" opacity="0.33" fill="#fff"/><rect width="2.278" height="6.495" rx="0" ry="0" transform="translate(777.666 350.623)" opacity="0.33" fill="#fff"/><rect width="2.278" height="6.495" rx="0" ry="0" transform="translate(784.805 350.623)" opacity="0.33" fill="#fff"/><rect width="2.278" height="6.495" rx="0" ry="0" transform="translate(791.551 350.623)" opacity="0.33" fill="#fff"/><rect width="2.278" height="6.495" rx="0" ry="0" transform="translate(798.691 350.623)" opacity="0.33" fill="#fff"/><rect width="2.278" height="6.495" rx="0" ry="0" transform="translate(806.494 326.58)" opacity="0.33" fill="#fff"/><rect width="2.278" height="6.495" rx="0" ry="0" transform="translate(806.494 338.227)" opacity="0.33" fill="#fff"/><rect width="2.278" height="6.495" rx="0" ry="0" transform="translate(813.634 326.58)" opacity="0.33" fill="#fff"/><rect width="2.448" height="10.126" rx="0" ry="0" transform="translate(599.791 307.306)" opacity="0.33" fill="#fff"/><rect width="2.448" height="10.126" rx="0" ry="0" transform="translate(611.966 307.306)" opacity="0.33" fill="#fff"/><rect width="2.448" height="10.126" rx="0" ry="0" transform="translate(624.14 307.306)" opacity="0.33" fill="#fff"/><rect width="2.448" height="10.126" rx="0" ry="0" transform="translate(636.315 307.306)" opacity="0.33" fill="#fff"/><rect width="2.448" height="10.126" rx="0" ry="0" transform="translate(599.791 328.147)" opacity="0.33" fill="#fff"/><rect width="2.448" height="10.126" rx="0" ry="0" transform="translate(611.966 328.147)" opacity="0.33" fill="#fff"/><rect width="2.448" height="10.126" rx="0" ry="0" transform="translate(624.14 328.147)" opacity="0.33" fill="#fff"/><rect width="2.448" height="10.126" rx="0" ry="0" transform="translate(636.315 328.147)" opacity="0.33" fill="#fff"/><rect width="2.448" height="10.126" rx="0" ry="0" transform="translate(599.791 349.506)" opacity="0.33" fill="#fff"/><rect width="2.448" height="10.126" rx="0" ry="0" transform="translate(611.966 349.506)" opacity="0.33" fill="#fff"/><rect width="2.448" height="10.126" rx="0" ry="0" transform="translate(624.14 349.506)" opacity="0.33" fill="#fff"/><rect width="2.448" height="10.126" rx="0" ry="0" transform="translate(636.315 349.506)" opacity="0.33" fill="#fff"/><rect width="2.448" height="10.126" rx="0" ry="0" transform="translate(599.791 370.866)" opacity="0.33" fill="#fff"/><rect width="2.448" height="10.126" rx="0" ry="0" transform="translate(611.966 370.866)" opacity="0.33" fill="#fff"/><rect width="2.448" height="10.126" rx="0" ry="0" transform="translate(624.14 370.866)" opacity="0.33" fill="#fff"/><rect width="2.448" height="10.126" rx="0" ry="0" transform="translate(636.315 370.866)" opacity="0.33" fill="#fff"/><rect width="2.448" height="10.126" rx="0" ry="0" transform="translate(599.791 390.267)" opacity="0.33" fill="#fff"/><rect width="2.448" height="10.126" rx="0" ry="0" transform="translate(611.966 390.267)" opacity="0.33" fill="#fff"/><rect width="2.448" height="10.126" rx="0" ry="0" transform="translate(624.14 390.267)" opacity="0.33" fill="#fff"/><rect width="2.448" height="10.126" rx="0" ry="0" transform="translate(599.791 411.907)" opacity="0.33" fill="#fff"/><rect width="2.448" height="10.126" rx="0" ry="0" transform="translate(611.966 411.907)" opacity="0.33" fill="#fff"/><rect width="2.448" height="10.126" rx="0" ry="0" transform="translate(624.14 411.907)" opacity="0.33" fill="#fff"/><rect width="2.448" height="10.126" rx="0" ry="0" transform="translate(636.315 390.267)" opacity="0.33" fill="#fff"/><rect width="2.501" height="5.812" rx="0" ry="0" transform="translate(876.541 360.84)" opacity="0.33" fill="#fff"/><rect width="2.501" height="5.812" rx="0" ry="0" transform="translate(876.541 370.223)" opacity="0.33" fill="#fff"/><rect width="2.501" height="5.812" rx="0" ry="0" transform="translate(882.957 360.84)" opacity="0.33" fill="#fff"/></g></g></g></svg>
